<svg width="49" height="65" viewBox="0 0 49 65" fill="none" xmlns="http://www.w3.org/2000/svg">
<mask id="path-1-inside-1_917_356" fill="white">
<path d="M17.3096 0.144012C16.6111 0.357651 15.8387 0.678109 15.4197 0.932833C14.9678 1.21221 13.9817 2.00103 13.6531 2.35436C12.4205 3.67727 11.188 5.71506 10.4156 7.7282C10.3334 7.93362 10.2184 8.20478 10.1527 8.32804C10.0869 8.45951 10.0376 8.60741 10.0376 8.67315C10.0376 8.73066 9.98011 8.88678 9.91438 9.01004C9.84864 9.14151 9.79112 9.30584 9.79112 9.37979C9.79112 9.45375 9.73361 9.6263 9.66787 9.74955C9.60214 9.88102 9.54462 10.0536 9.54462 10.1275C9.54462 10.2015 9.47067 10.4316 9.3885 10.6288C9.23238 10.9821 9.20773 11.0067 8.82975 11.056C7.88481 11.1793 6.74267 11.8284 5.79772 12.7734C4.69666 13.8826 4.0311 15.0905 3.497 16.9311C3.3491 17.4488 3.34088 18.024 3.34088 32.3378C3.34088 48.7223 3.2998 47.235 3.80924 48.6483C4.12148 49.5275 4.75418 50.5135 5.42797 51.2038C6.20857 51.9844 7.50683 52.7814 8.55859 53.1265C9.30633 53.3648 9.20773 53.2169 9.67609 54.811C9.84043 55.3779 10.013 55.8545 10.1691 56.1503C10.2348 56.2818 10.2841 56.4297 10.2841 56.4954C10.2841 56.7091 11.4345 59.1823 12.0015 60.1766C13.0943 62.1076 14.5651 63.6195 16.0359 64.3179C17.515 65.0163 17.2438 64.9999 27.9175 64.9999C34.3842 64.9999 37.3259 64.9753 37.7449 64.9095C39.1664 64.6877 40.1771 64.1782 41.2946 63.11C42.5929 61.8775 43.8747 59.815 44.6717 57.6869C44.7457 57.4815 44.8525 57.2021 44.91 57.0706C45.0497 56.7502 45.2058 56.29 45.2634 56.0846C45.288 55.9942 45.3537 55.8052 45.4195 55.6573C45.4852 55.5176 45.5345 55.3286 45.5345 55.2465C45.5345 55.1643 45.5674 55.0575 45.6085 55.0082C45.6578 54.9671 45.7235 54.7863 45.7728 54.6055C45.8221 54.4248 45.9864 53.7756 46.1508 53.1676C46.4959 51.8447 46.6684 51.1298 46.7588 50.5793C46.7999 50.3492 46.8739 50.0616 46.9232 49.9384C46.9725 49.8069 47.0136 49.585 47.0136 49.4371C47.0136 49.281 47.0711 49.0016 47.1368 48.8126C47.2025 48.6236 47.2601 48.3196 47.2601 48.1471C47.2601 47.9745 47.3011 47.7362 47.3422 47.6212C47.3915 47.4979 47.4573 47.12 47.5066 46.7748C47.5477 46.4297 47.638 45.756 47.7038 45.2794C47.9831 43.2252 48.1064 41.9844 48.3283 38.8784C48.5419 36.0107 48.5665 27.7117 48.3693 25.1151C48.1475 22.1078 47.8845 19.5441 47.6627 18.1226C47.6134 17.8514 47.5477 17.3913 47.5066 17.0955C47.4655 16.7996 47.3915 16.4545 47.3504 16.3231C47.3011 16.1998 47.2601 15.9533 47.2601 15.7725C47.2601 15.5918 47.2025 15.3124 47.1368 15.1481C47.0711 14.9919 47.0136 14.7126 47.0136 14.5318C47.0136 14.351 46.9725 14.1374 46.9232 14.047C46.8739 13.9566 46.8081 13.7101 46.7671 13.4965C46.6191 12.7241 46.3644 11.7545 45.9782 10.4809C45.9125 10.2508 45.8221 9.95498 45.781 9.82351C45.6578 9.39623 45.5181 9.01004 45.4031 8.77175C45.3373 8.64028 45.288 8.48416 45.288 8.42664C45.288 8.36912 45.2387 8.213 45.173 8.08153C45.1072 7.95828 44.8772 7.42418 44.6553 6.90651C44.1048 5.57538 43.7761 4.95089 42.9626 3.71836C42.3135 2.73233 41.4672 1.81204 40.6537 1.21221C40.0456 0.76028 39.0761 0.250831 38.8213 0.250831C38.7392 0.250831 38.5255 0.193313 38.3448 0.127578C37.8353 -0.0531937 17.9094 -0.0367592 17.3096 0.144012ZM32.9298 2.67481C32.9545 2.74055 32.8723 2.92954 32.7326 3.10209C32.2561 3.71836 31.344 5.35352 30.8427 6.49567C30.777 6.65179 30.6866 6.849 30.6538 6.92295C30.5141 7.20232 29.906 8.9936 29.6267 9.94676C29.413 10.6534 29.4377 10.637 28.7639 10.7027C27.9175 10.7767 12.5849 10.8917 12.3055 10.8178C12.1329 10.7767 12.0918 10.7274 12.1329 10.6205C12.1658 10.5466 12.2233 10.3658 12.2562 10.2344C12.3712 9.82351 12.8149 8.64028 13.1272 7.93362C13.1847 7.79394 13.2504 7.6296 13.2751 7.56386C13.2997 7.49813 13.3572 7.37487 13.4065 7.2927C13.5462 7.05441 13.6366 6.88186 13.8585 6.45458C14.483 5.23027 15.8552 3.59511 16.6111 3.16783C17.704 2.55978 17.4657 2.57621 25.6333 2.55978C31.9685 2.55156 32.8888 2.56799 32.9298 2.67481ZM38.2379 3.15961C38.846 3.31573 39.3143 3.58689 39.8813 4.10455C40.3332 4.52361 40.9988 5.31244 41.1221 5.59181C41.1549 5.65754 41.2535 5.82188 41.3439 5.96157C41.4918 6.19986 42.2313 7.6789 42.445 8.18013C42.5025 8.3116 42.6175 8.56632 42.6915 8.73888C42.7654 8.91143 42.823 9.08399 42.823 9.13329C42.823 9.18259 42.8723 9.33871 42.9298 9.4784C43.1516 10.0043 43.431 10.8671 43.5543 11.4258C43.5871 11.5819 43.6611 11.7956 43.7104 11.8942C43.7679 11.9928 43.809 12.1818 43.809 12.3214C43.809 12.4529 43.8418 12.5844 43.8829 12.609C43.924 12.6419 43.9815 12.8145 44.0144 13.0117C44.0473 13.2006 44.1212 13.5375 44.1787 13.7676C44.4335 14.6797 44.9018 17.1694 45.0415 18.3362C45.0826 18.6731 45.1565 19.0593 45.2058 19.1825C45.2469 19.3058 45.288 19.6345 45.288 19.9138C45.288 20.1932 45.3291 20.5548 45.3702 20.7109C45.4195 20.867 45.4934 21.4258 45.5345 21.9434C45.5756 22.4611 45.6496 23.2417 45.6906 23.669C46.1015 27.4734 46.0933 35.5917 45.6906 39.9384C45.6413 40.4561 45.5756 41.3106 45.5427 41.8365C45.5016 42.3624 45.4441 42.839 45.4113 42.8965C45.3702 42.9622 45.3127 43.3648 45.2798 43.7921C45.2469 44.2276 45.1812 44.8357 45.1237 45.1561C45.0744 45.4684 44.9758 46.0846 44.91 46.5119C44.7621 47.4569 44.5731 48.5004 44.4252 49.2235C44.3595 49.5193 44.2527 50.0534 44.1787 50.4149C44.1048 50.7765 43.9897 51.2202 43.924 51.401C43.8583 51.5899 43.809 51.8447 43.809 51.9761C43.8008 52.1158 43.7515 52.313 43.6857 52.4281C43.62 52.5431 43.5625 52.7403 43.5625 52.88C43.5625 53.0115 43.505 53.2169 43.4392 53.3319C43.3735 53.447 43.3242 53.636 43.316 53.7592C43.316 53.8825 43.2831 53.9975 43.242 54.0304C43.2009 54.055 43.1434 54.1947 43.1105 54.3426C43.053 54.622 42.6257 55.9202 42.4532 56.3311C42.3957 56.4626 42.2889 56.7419 42.2067 56.9474C41.5576 58.6154 40.4565 60.382 39.5937 61.1215C38.9035 61.7214 38.4434 61.9021 37.6463 61.9104C36.7342 61.9186 36.0851 61.6392 35.3867 60.9408C34.68 60.2341 33.6858 58.4757 33.086 56.8652C33.012 56.6598 32.9052 56.3804 32.8477 56.2489C32.708 55.9285 32.5519 55.4848 32.4697 55.1807C32.4286 55.041 32.3136 54.6713 32.215 54.359C32.1164 54.0386 32.0342 53.636 32.026 53.4634C32.0178 53.1512 32.0342 53.1265 32.3875 52.995C33.5872 52.5513 34.6225 51.7625 35.4113 50.7107C36.044 49.8562 36.2166 49.5604 36.5124 48.7716C37.0876 47.235 37.0711 47.8595 37.0629 32.1324C37.0629 17.8432 37.0383 16.6682 36.7507 16.1341C36.7014 16.0355 36.6603 15.8958 36.6603 15.8218C36.6603 15.5918 36.1673 14.5236 35.7975 13.932C35.3045 13.1596 34.2856 12.116 33.7022 11.7956C33.2503 11.5491 32.8066 11.3601 32.5683 11.3025C32.1574 11.2204 32.1081 11.0889 32.2643 10.5466C32.3382 10.2837 32.4286 9.93854 32.4615 9.78242C32.5026 9.6263 32.5847 9.36336 32.634 9.20724C32.897 8.46772 32.9545 8.31982 33.086 7.97471C34.2199 5.0988 35.4031 3.62797 36.9479 3.16783C37.408 3.02814 37.7285 3.02814 38.2379 3.15961ZM30.2101 13.5211C30.8181 13.6608 31.2947 13.8333 31.4179 13.9566C31.4754 14.0141 31.5494 14.0552 31.5905 14.0552C31.722 14.0552 32.3793 14.6057 32.7326 15.0248C33.1928 15.5671 33.5625 16.3148 33.7762 17.153C33.9487 17.835 33.9487 17.835 33.9241 32.3131C33.9076 45.7313 33.8912 46.8324 33.768 47.1939C33.5297 47.8513 33.127 48.6236 32.823 48.977C32.4779 49.3714 31.6234 50.0452 31.459 50.0452C31.3933 50.0452 31.2947 50.1027 31.2372 50.1684C31.1796 50.2342 31.0728 50.2917 30.9907 50.2917C30.9085 50.2917 30.7031 50.3574 30.5305 50.4314C30.2347 50.5711 29.5527 50.5793 20.0622 50.5793H9.91438L9.40493 50.3985C7.74512 49.7987 6.65228 48.5743 6.31539 46.9228C6.20857 46.3969 6.18392 18.1637 6.29074 17.4652C6.51259 16.019 7.62187 14.4743 8.84618 13.8909C9.86508 13.4143 9.82399 13.4143 20.2266 13.4061C28.049 13.4061 29.8074 13.4225 30.2101 13.5211ZM29.3801 54.0057C29.7006 55.1643 29.8156 55.5423 30.2511 56.8241C30.399 57.2596 30.6784 57.9663 30.8674 58.3853C31.2372 59.207 31.4261 59.6425 31.5165 59.8233C31.7713 60.3574 32.3629 61.3845 32.6422 61.7953C32.8148 62.0418 32.9298 62.2719 32.9134 62.3048C32.8888 62.3459 29.5938 62.3705 25.584 62.3705H18.2874L17.7122 62.1815C16.8823 61.9104 16.4057 61.6063 15.7073 60.8997C15.1074 60.2998 14.6966 59.7575 14.3186 59.0427C14.22 58.8619 14.105 58.6565 14.0639 58.5907C14.0228 58.525 13.9735 58.41 13.9489 58.3442C13.9242 58.2785 13.8667 58.1635 13.8256 58.0977C13.4805 57.5308 12.437 54.9178 12.2562 54.1536C12.2151 53.9975 12.1576 53.7839 12.1329 53.677L12.0754 53.4963H20.6538H29.2405L29.3801 54.0057Z"/>
</mask>
<path d="M17.3096 0.144012C16.6111 0.357651 15.8387 0.678109 15.4197 0.932833C14.9678 1.21221 13.9817 2.00103 13.6531 2.35436C12.4205 3.67727 11.188 5.71506 10.4156 7.7282C10.3334 7.93362 10.2184 8.20478 10.1527 8.32804C10.0869 8.45951 10.0376 8.60741 10.0376 8.67315C10.0376 8.73066 9.98011 8.88678 9.91438 9.01004C9.84864 9.14151 9.79112 9.30584 9.79112 9.37979C9.79112 9.45375 9.73361 9.6263 9.66787 9.74955C9.60214 9.88102 9.54462 10.0536 9.54462 10.1275C9.54462 10.2015 9.47067 10.4316 9.3885 10.6288C9.23238 10.9821 9.20773 11.0067 8.82975 11.056C7.88481 11.1793 6.74267 11.8284 5.79772 12.7734C4.69666 13.8826 4.0311 15.0905 3.497 16.9311C3.3491 17.4488 3.34088 18.024 3.34088 32.3378C3.34088 48.7223 3.2998 47.235 3.80924 48.6483C4.12148 49.5275 4.75418 50.5135 5.42797 51.2038C6.20857 51.9844 7.50683 52.7814 8.55859 53.1265C9.30633 53.3648 9.20773 53.2169 9.67609 54.811C9.84043 55.3779 10.013 55.8545 10.1691 56.1503C10.2348 56.2818 10.2841 56.4297 10.2841 56.4954C10.2841 56.7091 11.4345 59.1823 12.0015 60.1766C13.0943 62.1076 14.5651 63.6195 16.0359 64.3179C17.515 65.0163 17.2438 64.9999 27.9175 64.9999C34.3842 64.9999 37.3259 64.9753 37.7449 64.9095C39.1664 64.6877 40.1771 64.1782 41.2946 63.11C42.5929 61.8775 43.8747 59.815 44.6717 57.6869C44.7457 57.4815 44.8525 57.2021 44.91 57.0706C45.0497 56.7502 45.2058 56.29 45.2634 56.0846C45.288 55.9942 45.3537 55.8052 45.4195 55.6573C45.4852 55.5176 45.5345 55.3286 45.5345 55.2465C45.5345 55.1643 45.5674 55.0575 45.6085 55.0082C45.6578 54.9671 45.7235 54.7863 45.7728 54.6055C45.8221 54.4248 45.9864 53.7756 46.1508 53.1676C46.4959 51.8447 46.6684 51.1298 46.7588 50.5793C46.7999 50.3492 46.8739 50.0616 46.9232 49.9384C46.9725 49.8069 47.0136 49.585 47.0136 49.4371C47.0136 49.281 47.0711 49.0016 47.1368 48.8126C47.2025 48.6236 47.2601 48.3196 47.2601 48.1471C47.2601 47.9745 47.3011 47.7362 47.3422 47.6212C47.3915 47.4979 47.4573 47.12 47.5066 46.7748C47.5477 46.4297 47.638 45.756 47.7038 45.2794C47.9831 43.2252 48.1064 41.9844 48.3283 38.8784C48.5419 36.0107 48.5665 27.7117 48.3693 25.1151C48.1475 22.1078 47.8845 19.5441 47.6627 18.1226C47.6134 17.8514 47.5477 17.3913 47.5066 17.0955C47.4655 16.7996 47.3915 16.4545 47.3504 16.3231C47.3011 16.1998 47.2601 15.9533 47.2601 15.7725C47.2601 15.5918 47.2025 15.3124 47.1368 15.1481C47.0711 14.9919 47.0136 14.7126 47.0136 14.5318C47.0136 14.351 46.9725 14.1374 46.9232 14.047C46.8739 13.9566 46.8081 13.7101 46.7671 13.4965C46.6191 12.7241 46.3644 11.7545 45.9782 10.4809C45.9125 10.2508 45.8221 9.95498 45.781 9.82351C45.6578 9.39623 45.5181 9.01004 45.4031 8.77175C45.3373 8.64028 45.288 8.48416 45.288 8.42664C45.288 8.36912 45.2387 8.213 45.173 8.08153C45.1072 7.95828 44.8772 7.42418 44.6553 6.90651C44.1048 5.57538 43.7761 4.95089 42.9626 3.71836C42.3135 2.73233 41.4672 1.81204 40.6537 1.21221C40.0456 0.76028 39.0761 0.250831 38.8213 0.250831C38.7392 0.250831 38.5255 0.193313 38.3448 0.127578C37.8353 -0.0531937 17.9094 -0.0367592 17.3096 0.144012ZM32.9298 2.67481C32.9545 2.74055 32.8723 2.92954 32.7326 3.10209C32.2561 3.71836 31.344 5.35352 30.8427 6.49567C30.777 6.65179 30.6866 6.849 30.6538 6.92295C30.5141 7.20232 29.906 8.9936 29.6267 9.94676C29.413 10.6534 29.4377 10.637 28.7639 10.7027C27.9175 10.7767 12.5849 10.8917 12.3055 10.8178C12.1329 10.7767 12.0918 10.7274 12.1329 10.6205C12.1658 10.5466 12.2233 10.3658 12.2562 10.2344C12.3712 9.82351 12.8149 8.64028 13.1272 7.93362C13.1847 7.79394 13.2504 7.6296 13.2751 7.56386C13.2997 7.49813 13.3572 7.37487 13.4065 7.2927C13.5462 7.05441 13.6366 6.88186 13.8585 6.45458C14.483 5.23027 15.8552 3.59511 16.6111 3.16783C17.704 2.55978 17.4657 2.57621 25.6333 2.55978C31.9685 2.55156 32.8888 2.56799 32.9298 2.67481ZM38.2379 3.15961C38.846 3.31573 39.3143 3.58689 39.8813 4.10455C40.3332 4.52361 40.9988 5.31244 41.1221 5.59181C41.1549 5.65754 41.2535 5.82188 41.3439 5.96157C41.4918 6.19986 42.2313 7.6789 42.445 8.18013C42.5025 8.3116 42.6175 8.56632 42.6915 8.73888C42.7654 8.91143 42.823 9.08399 42.823 9.13329C42.823 9.18259 42.8723 9.33871 42.9298 9.4784C43.1516 10.0043 43.431 10.8671 43.5543 11.4258C43.5871 11.5819 43.6611 11.7956 43.7104 11.8942C43.7679 11.9928 43.809 12.1818 43.809 12.3214C43.809 12.4529 43.8418 12.5844 43.8829 12.609C43.924 12.6419 43.9815 12.8145 44.0144 13.0117C44.0473 13.2006 44.1212 13.5375 44.1787 13.7676C44.4335 14.6797 44.9018 17.1694 45.0415 18.3362C45.0826 18.6731 45.1565 19.0593 45.2058 19.1825C45.2469 19.3058 45.288 19.6345 45.288 19.9138C45.288 20.1932 45.3291 20.5548 45.3702 20.7109C45.4195 20.867 45.4934 21.4258 45.5345 21.9434C45.5756 22.4611 45.6496 23.2417 45.6906 23.669C46.1015 27.4734 46.0933 35.5917 45.6906 39.9384C45.6413 40.4561 45.5756 41.3106 45.5427 41.8365C45.5016 42.3624 45.4441 42.839 45.4113 42.8965C45.3702 42.9622 45.3127 43.3648 45.2798 43.7921C45.2469 44.2276 45.1812 44.8357 45.1237 45.1561C45.0744 45.4684 44.9758 46.0846 44.91 46.5119C44.7621 47.4569 44.5731 48.5004 44.4252 49.2235C44.3595 49.5193 44.2527 50.0534 44.1787 50.4149C44.1048 50.7765 43.9897 51.2202 43.924 51.401C43.8583 51.5899 43.809 51.8447 43.809 51.9761C43.8008 52.1158 43.7515 52.313 43.6857 52.4281C43.62 52.5431 43.5625 52.7403 43.5625 52.88C43.5625 53.0115 43.505 53.2169 43.4392 53.3319C43.3735 53.447 43.3242 53.636 43.316 53.7592C43.316 53.8825 43.2831 53.9975 43.242 54.0304C43.2009 54.055 43.1434 54.1947 43.1105 54.3426C43.053 54.622 42.6257 55.9202 42.4532 56.3311C42.3957 56.4626 42.2889 56.7419 42.2067 56.9474C41.5576 58.6154 40.4565 60.382 39.5937 61.1215C38.9035 61.7214 38.4434 61.9021 37.6463 61.9104C36.7342 61.9186 36.0851 61.6392 35.3867 60.9408C34.68 60.2341 33.6858 58.4757 33.086 56.8652C33.012 56.6598 32.9052 56.3804 32.8477 56.2489C32.708 55.9285 32.5519 55.4848 32.4697 55.1807C32.4286 55.041 32.3136 54.6713 32.215 54.359C32.1164 54.0386 32.0342 53.636 32.026 53.4634C32.0178 53.1512 32.0342 53.1265 32.3875 52.995C33.5872 52.5513 34.6225 51.7625 35.4113 50.7107C36.044 49.8562 36.2166 49.5604 36.5124 48.7716C37.0876 47.235 37.0711 47.8595 37.0629 32.1324C37.0629 17.8432 37.0383 16.6682 36.7507 16.1341C36.7014 16.0355 36.6603 15.8958 36.6603 15.8218C36.6603 15.5918 36.1673 14.5236 35.7975 13.932C35.3045 13.1596 34.2856 12.116 33.7022 11.7956C33.2503 11.5491 32.8066 11.3601 32.5683 11.3025C32.1574 11.2204 32.1081 11.0889 32.2643 10.5466C32.3382 10.2837 32.4286 9.93854 32.4615 9.78242C32.5026 9.6263 32.5847 9.36336 32.634 9.20724C32.897 8.46772 32.9545 8.31982 33.086 7.97471C34.2199 5.0988 35.4031 3.62797 36.9479 3.16783C37.408 3.02814 37.7285 3.02814 38.2379 3.15961ZM30.2101 13.5211C30.8181 13.6608 31.2947 13.8333 31.4179 13.9566C31.4754 14.0141 31.5494 14.0552 31.5905 14.0552C31.722 14.0552 32.3793 14.6057 32.7326 15.0248C33.1928 15.5671 33.5625 16.3148 33.7762 17.153C33.9487 17.835 33.9487 17.835 33.9241 32.3131C33.9076 45.7313 33.8912 46.8324 33.768 47.1939C33.5297 47.8513 33.127 48.6236 32.823 48.977C32.4779 49.3714 31.6234 50.0452 31.459 50.0452C31.3933 50.0452 31.2947 50.1027 31.2372 50.1684C31.1796 50.2342 31.0728 50.2917 30.9907 50.2917C30.9085 50.2917 30.7031 50.3574 30.5305 50.4314C30.2347 50.5711 29.5527 50.5793 20.0622 50.5793H9.91438L9.40493 50.3985C7.74512 49.7987 6.65228 48.5743 6.31539 46.9228C6.20857 46.3969 6.18392 18.1637 6.29074 17.4652C6.51259 16.019 7.62187 14.4743 8.84618 13.8909C9.86508 13.4143 9.82399 13.4143 20.2266 13.4061C28.049 13.4061 29.8074 13.4225 30.2101 13.5211ZM29.3801 54.0057C29.7006 55.1643 29.8156 55.5423 30.2511 56.8241C30.399 57.2596 30.6784 57.9663 30.8674 58.3853C31.2372 59.207 31.4261 59.6425 31.5165 59.8233C31.7713 60.3574 32.3629 61.3845 32.6422 61.7953C32.8148 62.0418 32.9298 62.2719 32.9134 62.3048C32.8888 62.3459 29.5938 62.3705 25.584 62.3705H18.2874L17.7122 62.1815C16.8823 61.9104 16.4057 61.6063 15.7073 60.8997C15.1074 60.2998 14.6966 59.7575 14.3186 59.0427C14.22 58.8619 14.105 58.6565 14.0639 58.5907C14.0228 58.525 13.9735 58.41 13.9489 58.3442C13.9242 58.2785 13.8667 58.1635 13.8256 58.0977C13.4805 57.5308 12.437 54.9178 12.2562 54.1536C12.2151 53.9975 12.1576 53.7839 12.1329 53.677L12.0754 53.4963H20.6538H29.2405L29.3801 54.0057Z" fill="#CCCCCC" stroke="#252C30" stroke-width="0.266667" mask="url(#path-1-inside-1_917_356)"/>
<path d="M20.3511 33.4748C22.7429 33.4748 25.1347 33.4632 26.9556 33.4406C27.8659 33.4293 28.6337 33.4156 29.187 33.3987C29.4635 33.3902 29.6862 33.3811 29.8462 33.3713C29.926 33.3664 29.99 33.3608 30.0366 33.3557C30.06 33.3531 30.0787 33.3503 30.0923 33.3479C30.1054 33.3456 30.1109 33.3442 30.1118 33.344C30.4684 33.1957 30.7307 32.9957 30.9048 32.7463C31.057 32.5282 31.1444 32.2688 31.1665 31.967L31.1724 31.8352C31.1723 31.6182 31.1631 31.4898 31.1294 31.3781C31.0959 31.2674 31.0365 31.1678 30.9224 31.0129L30.9214 31.0119C30.8531 30.9156 30.7705 30.8126 30.6938 30.7258C30.6162 30.6379 30.5481 30.5715 30.5093 30.5432C30.4545 30.5036 30.4078 30.4707 30.3481 30.4426C30.2886 30.4145 30.2137 30.3895 30.104 30.3674C29.8825 30.3229 29.525 30.2922 28.8755 30.2717C27.5776 30.2307 25.13 30.2305 20.3101 30.2346C16.3703 30.2346 14.0249 30.2415 12.6255 30.26C11.926 30.2692 11.4634 30.281 11.1567 30.2971C11.0021 30.3052 10.8884 30.3147 10.8052 30.3244L10.6343 30.3547C10.4288 30.4192 10.283 30.4869 10.1538 30.5852C10.0566 30.6592 9.96644 30.7524 9.86768 30.8801L9.76514 31.0197C9.6859 31.1347 9.64096 31.2211 9.61475 31.3352C9.58787 31.4523 9.5796 31.6019 9.57959 31.844C9.57959 32.2384 9.65437 32.5367 9.81396 32.7727C9.97362 33.0087 10.2238 33.1908 10.5903 33.344C10.5903 33.3439 10.5957 33.3454 10.6099 33.3479C10.6235 33.3503 10.6422 33.3531 10.6655 33.3557C10.7121 33.3608 10.7759 33.3664 10.856 33.3713C11.0159 33.3811 11.2385 33.3902 11.5151 33.3987C12.0684 33.4156 12.8361 33.4293 13.7466 33.4406C15.5675 33.4632 17.9592 33.4748 20.3511 33.4748Z" fill="#CCCCCC" stroke="#252C30" stroke-width="0.133333"/>
<path d="M8.53979 56.2C12.2953 56.2 15.3395 53.1557 15.3396 49.4002C15.3396 45.6447 12.2953 42.6004 8.53979 42.6004C4.78435 42.6005 1.73999 45.6447 1.73999 49.4002C1.7401 53.1556 4.78442 56.1999 8.53979 56.2Z" fill="#39FF00" stroke="#252C30" stroke-width="2"/>
</svg>
