<svg width="97" height="97" viewBox="0 0 97 97" fill="none" xmlns="http://www.w3.org/2000/svg">
<path d="M20.985 0.104542C20.3535 0.201693 19.9163 0.493151 20.0134 0.687456C20.3049 1.56183 47.7991 28.8617 48.3334 28.8617C49.2078 28.8617 76.7991 1.07607 76.6048 0.493151C76.4591 0.153116 73.4959 -0.0411873 67.8125 0.00738907H59.2145L54.0168 5.20505C51.1508 8.07104 48.5277 10.4027 48.2362 10.4027C47.9448 10.4027 45.4188 8.07104 42.65 5.25362L37.6466 0.104542L29.8744 0.0559654C25.5997 0.00738907 21.6165 0.00738907 20.985 0.104542Z" fill="black"/>
<path d="M1.52588e-05 28.5216V37.3625L5.10052 42.463C7.86937 45.2804 10.201 47.9035 10.201 48.2922C10.201 48.7293 7.91795 51.3039 5.10052 54.1213L1.52588e-05 59.2218V68.0141C1.52588e-05 72.8232 0.0971678 76.9036 0.242897 77.0493C0.58293 77.3893 29.1458 48.9722 29.1458 48.3407C29.1458 47.7092 1.02012 19.6322 0.437202 19.6322C0.19432 19.6322 1.52588e-05 23.5183 1.52588e-05 28.5216Z" fill="black"/>
<path d="M81.511 33.865C73.7873 41.6372 67.521 48.1464 67.521 48.3407C67.521 48.9236 95.2095 76.2235 95.9381 76.3692C96.5696 76.5149 96.6668 75.252 96.6668 67.9655V59.3675L91.3234 53.8784C88.4088 50.8667 85.98 48.2921 85.98 48.1464C85.98 48.0007 88.4088 45.5233 91.3234 42.6573L96.6668 37.4111L96.5696 28.7159C96.4724 23.3725 96.2296 19.9236 95.9381 19.875C95.6952 19.7779 89.186 26.0928 81.511 33.865Z" fill="black"/>
<path d="M33.4205 81.8583C22.2966 93.128 19.6735 95.994 20.3049 96.2855C20.7421 96.4798 24.774 96.6741 29.2916 96.6255L37.4038 96.577L42.65 91.3793C45.516 88.5133 48.0906 86.1816 48.3335 86.1816C48.6249 86.1816 51.1023 88.4647 53.9197 91.2821C56.6886 94.0996 59.2145 96.3826 59.506 96.4312C63.4407 96.6255 76.8963 96.5284 77.042 96.2855C77.4306 95.7026 49.1107 67.7227 48.2363 67.7712C47.7505 67.8198 41.0956 74.1833 33.4205 81.8583Z" fill="black"/>
</svg>
