<svg width="49" height="78" viewBox="0 0 49 78" fill="none" xmlns="http://www.w3.org/2000/svg">
<path d="M40.9011 0H7.83893C5.64628 0.147936 3.59415 1.26163 2.12832 3.09915C0.662493 4.93667 -0.0986385 7.3496 0.0102645 9.81379V68.1862C-0.0986385 70.6504 0.662493 73.0633 2.12832 74.9009C3.59415 76.7384 5.64628 77.8521 7.83893 78H40.9011C43.0937 77.8521 45.1458 76.7384 46.6117 74.9009C48.0775 73.0633 48.8386 70.6504 48.7297 68.1862V9.81379C48.8386 7.3496 48.0775 4.93667 46.6117 3.09915C45.1458 1.26163 43.0937 0.147936 40.9011 0ZM45.2348 68.1862C45.3415 69.6093 44.9475 71.0227 44.1374 72.1234C43.3273 73.2241 42.1655 73.9245 40.9011 74.0745H7.83893C6.5745 73.9245 5.41271 73.2241 4.6026 72.1234C3.79249 71.0227 3.39854 69.6093 3.50521 68.1862V9.81379C3.39854 8.39072 3.79249 6.97734 4.6026 5.87664C5.41271 4.77593 6.5745 4.07551 7.83893 3.92552H13.1862V5.92753C13.1862 6.96864 13.5544 7.96711 14.2098 8.70329C14.8653 9.43947 15.7542 9.85304 16.6811 9.85304H32.0589C32.9858 9.85304 33.8747 9.43947 34.5302 8.70329C35.1856 7.96711 35.5538 6.96864 35.5538 5.92753V3.92552H40.9011C42.1655 4.07551 43.3273 4.77593 44.1374 5.87664C44.9475 6.97734 45.3415 8.39072 45.2348 9.81379V68.1862Z" fill="#CCCCCC"/>
<path d="M17.3801 66.2195H31.3599C31.8233 66.2195 32.2678 66.0127 32.5955 65.6446C32.9232 65.2766 33.1073 64.7773 33.1073 64.2568C33.1073 63.7362 32.9232 63.237 32.5955 62.8689C32.2678 62.5008 31.8233 62.294 31.3599 62.294H17.3801C16.9166 62.294 16.4722 62.5008 16.1445 62.8689C15.8167 63.237 15.6326 63.7362 15.6326 64.2568C15.6326 64.7773 15.8167 65.2766 16.1445 65.6446C16.4722 66.0127 16.9166 66.2195 17.3801 66.2195Z" fill="#CCCCCC"/>
</svg>
