<svg width="27" height="27" viewBox="0 0 27 27" fill="none" xmlns="http://www.w3.org/2000/svg">
<path d="M19.5258 8.03439C18.1639 7.90421 16.907 8.151 16 8.65C16.4279 9.20053 16.7025 10.0629 16.7025 11.0338C16.7025 11.8257 16.5194 12.5444 16.2207 13.0813C16.9824 13.5397 17.9567 13.8624 19.0359 13.9654C21.6386 14.2149 23.859 13.0868 23.9936 11.4487C24.1282 9.81072 22.1284 8.28389 19.5258 8.03439Z" fill="#FFB89A"/>
<path d="M1.77197 13.0254L1.79834 13.8428C1.85635 15.6278 2.48916 17.3654 3.6335 18.8631C4.73037 20.3001 6.25967 21.4787 8.06055 22.2724C8.46133 22.449 8.92803 22.2671 9.10205 21.8663C9.27871 21.4655 9.09678 20.9988 8.696 20.8248C7.14033 20.1393 5.82461 19.1294 4.88857 17.9033C4.12393 16.9014 3.63613 15.7755 3.4542 14.6074H23.5618C23.3772 15.7887 22.8815 16.9251 22.1011 17.9376C21.1492 19.1716 19.8124 20.1841 18.2304 20.8617C17.8296 21.0331 17.645 21.4998 17.8164 21.9006C17.9456 22.2012 18.2356 22.3805 18.5441 22.3805C18.6496 22.3805 18.7551 22.3594 18.8553 22.3172C22.6653 20.6771 25.1043 17.4313 25.2177 13.8428L25.244 13.0254H1.77197Z" fill="white"/>
<path d="M15.6066 21.0962H11.4143C10.4861 21.0962 9.72412 21.8556 9.72412 22.7863C9.72412 23.7171 10.4835 24.4765 11.4143 24.4765H15.6066C16.5348 24.4765 17.2968 23.7171 17.2968 22.7863C17.2968 21.8556 16.5348 21.0962 15.6066 21.0962ZM15.6066 22.8918H11.4143C11.3589 22.8918 11.3062 22.8391 11.3062 22.7837C11.3062 22.7283 11.3589 22.6756 11.4143 22.6756H15.6066C15.662 22.6756 15.7147 22.7283 15.7147 22.7837C15.7147 22.8391 15.662 22.8918 15.6066 22.8918Z" fill="white"/>
<path d="M13.1334 9.84795C12.8803 9.49199 12.3846 9.41025 12.0287 9.66602C11.6727 9.91914 11.591 10.4148 11.8467 10.7708C12.1315 11.1689 12.2844 11.6409 12.2844 12.134C12.2844 12.5717 12.6377 12.925 13.0754 12.925C13.5131 12.925 13.8665 12.5717 13.8665 12.134C13.8665 11.3061 13.6133 10.515 13.1334 9.84795ZM11.4011 8.48477C10.9344 8.29756 10.444 8.20264 9.93774 8.20264C7.77036 8.20264 6.00903 9.96396 6.00903 12.1313C6.00903 12.569 6.36235 12.9224 6.80005 12.9224C7.23774 12.9224 7.59106 12.569 7.59106 12.1313C7.59106 10.8367 8.64312 9.78467 9.93774 9.78467C10.241 9.78467 10.5336 9.84004 10.8105 9.95342C11.2166 10.1169 11.6753 9.91914 11.8388 9.51309C12.0023 9.10703 11.8072 8.6456 11.4011 8.48477Z" fill="#33CC99"/>
<path d="M14.4861 7.24286C13.2548 6.04051 11.6464 5.37606 9.95625 5.37606C8.26611 5.37606 6.65772 6.03788 5.42637 7.24286C4.21084 8.43202 3.4752 10.0378 3.35391 11.7622C3.32227 12.1973 3.65186 12.5769 4.08692 12.6059C4.52197 12.6349 4.90166 12.308 4.93067 11.8729C5.02295 10.5335 5.59248 9.29159 6.53115 8.37401C7.46455 7.4617 8.68008 6.95809 9.95625 6.95809C11.2298 6.95809 12.448 7.4617 13.3813 8.37401C14.32 9.29159 14.8869 10.5335 14.9818 11.8729C15.0108 12.2895 15.3589 12.6086 15.7702 12.6086C15.7887 12.6086 15.8071 12.6086 15.8256 12.6059C16.2606 12.5743 16.5902 12.1973 16.5586 11.7622C16.4373 10.0378 15.7017 8.43202 14.4861 7.24286ZM23.6013 10.1749C23.298 9.66336 22.8709 9.20985 22.333 8.82489L23.7542 7.28768C24.0495 6.966 24.0311 6.46502 23.7094 6.16971C23.3877 5.8744 22.8867 5.89286 22.5914 6.21454L20.8775 8.07079C20.7457 8.02332 20.6112 7.9785 20.4741 7.93895L22.6468 3.74129C22.8472 3.3537 22.6969 2.87645 22.3066 2.67606C21.919 2.47567 21.4418 2.62596 21.2414 3.0162L18.8367 7.66473C18.6917 7.65682 18.544 7.65155 18.3964 7.65155C17.8189 7.65155 17.2494 7.71483 16.701 7.84139C16.2765 7.93895 16.0102 8.36346 16.1077 8.79061C16.2053 9.21512 16.6298 9.48143 17.0569 9.38387C17.4867 9.28368 17.9376 9.23358 18.3938 9.23358C19.5434 9.23358 20.6139 9.54471 21.4075 10.1116C22.1221 10.6205 22.5149 11.2718 22.5149 11.9441C22.5149 12.3818 22.8683 12.7351 23.306 12.7351C23.7437 12.7351 24.097 12.3818 24.097 11.9441C24.097 11.3245 23.9309 10.7286 23.6013 10.1749Z" fill="white"/>
</svg>
