<svg width="25" height="25" viewBox="0 0 25 25" fill="none" xmlns="http://www.w3.org/2000/svg">
<g clip-path="url(#clip0_756_429)">
<path d="M13.3047 1.59219C13.0369 1.57242 12.7685 1.56252 12.5 1.5625V0C12.8071 0.000149731 13.1141 0.0116158 13.4203 0.034375L13.3047 1.59219ZM16.4359 2.29531C15.9351 2.10204 15.4207 1.94589 14.8969 1.82812L15.2391 0.303125C15.8375 0.4375 16.4266 0.615625 16.9984 0.8375L16.4359 2.29531ZM18.5766 3.40469C18.3532 3.2557 18.1244 3.11498 17.8906 2.98281L18.6609 1.62344C19.1952 1.92615 19.7064 2.26769 20.1906 2.64531L19.2297 3.87813C19.0179 3.71286 18.8 3.55546 18.5766 3.40625V3.40469ZM21.4422 6.20156C21.1331 5.76246 20.7921 5.34675 20.4219 4.95781L21.5531 3.87969C21.975 4.325 22.3656 4.80156 22.7203 5.30156L21.4422 6.20156ZM22.6047 8.31406C22.5021 8.06634 22.3906 7.82243 22.2703 7.58281L23.6656 6.87969C23.9416 7.42826 24.1766 7.99647 24.3687 8.57969L22.8844 9.06875C22.8004 8.81385 22.7071 8.56212 22.6047 8.31406ZM23.4328 12.2312C23.4202 11.6943 23.368 11.159 23.2766 10.6297L24.8156 10.3641C24.9203 10.9672 24.9812 11.5797 24.9969 12.1922L23.4344 12.2312H23.4328ZM23.2281 14.6344C23.2797 14.3688 23.3219 14.1047 23.3547 13.8375L24.9062 14.0297C24.8312 14.6393 24.7111 15.2425 24.5469 15.8344L23.0406 15.4172C23.1125 15.1594 23.175 14.8984 23.2281 14.6344ZM21.7406 18.3516C22.0281 17.8984 22.2812 17.4234 22.5 16.9328L23.9281 17.5656C23.6781 18.1281 23.3891 18.6687 23.0609 19.1875L21.7406 18.3516ZM20.2344 20.2344C20.425 20.0437 20.6078 19.8469 20.7812 19.6437L21.9656 20.6641C21.7651 20.8966 21.5561 21.1218 21.3391 21.3391L20.2344 20.2344Z" fill="#A3A3A3"/>
<path d="M12.5 1.5625C10.7014 1.56263 8.93054 2.00632 7.34434 2.85428C5.75814 3.70224 4.40554 4.92828 3.40634 6.42383C2.40714 7.91937 1.79218 9.63825 1.61593 11.4282C1.43968 13.2182 1.70758 15.024 2.3959 16.6857C3.08422 18.3474 4.17172 19.8137 5.56207 20.9548C6.95242 22.0958 8.60271 22.8764 10.3668 23.2273C12.1308 23.5782 13.9542 23.4887 15.6754 22.9666C17.3966 22.4446 18.9625 21.5061 20.2344 20.2344L21.3391 21.3391C19.8855 22.7934 18.0957 23.8668 16.1282 24.4641C14.1607 25.0613 12.0762 25.1641 10.0595 24.7633C8.04274 24.3624 6.15602 23.4703 4.56648 22.166C2.97694 20.8617 1.73365 19.1854 0.946771 17.2858C0.159894 15.3861 -0.146273 13.3217 0.0553951 11.2754C0.257064 9.22915 0.960341 7.26422 2.10292 5.55472C3.24549 3.84521 4.79208 2.44392 6.60567 1.475C8.41925 0.506086 10.4438 -0.000544894 12.5 4.39778e-07V1.5625Z" fill="#A3A3A3"/>
<path d="M11.7188 4.6875C11.926 4.6875 12.1247 4.76981 12.2712 4.91632C12.4177 5.06284 12.5 5.26155 12.5 5.46875V13.6094L17.575 16.5094C17.7497 16.6147 17.8762 16.7843 17.9275 16.9817C17.9789 17.1791 17.951 17.3888 17.8498 17.5659C17.7486 17.7431 17.5821 17.8736 17.3859 17.9296C17.1898 17.9856 16.9795 17.9626 16.8 17.8656L11.3312 14.7406C11.2117 14.6723 11.1123 14.5736 11.0431 14.4545C10.974 14.3355 10.9375 14.2002 10.9375 14.0625V5.46875C10.9375 5.26155 11.0198 5.06284 11.1663 4.91632C11.3128 4.76981 11.5115 4.6875 11.7188 4.6875Z" fill="#A3A3A3"/>
</g>
<defs>
<clipPath id="clip0_756_429">
<rect width="25" height="25" fill="white"/>
</clipPath>
</defs>
</svg>
