<svg width="24" height="30" viewBox="0 0 24 30" fill="none" xmlns="http://www.w3.org/2000/svg">
<path d="M17.9339 5.58744C16.391 5.58744 15.1402 4.33665 15.1402 2.79372C15.1402 1.25079 16.391 0 17.9339 0C19.4768 0 20.7275 1.25079 20.7275 2.79372C20.7275 4.33665 19.4768 5.58744 17.9339 5.58744Z" fill="#48C225"/>
<path d="M0.372717 26.7779C3.70191 21.8089 7.50868 15.3364 8.14855 14.2438C8.20651 14.0456 8.28302 13.8444 8.38851 13.6422C9.14893 12.1601 9.94414 10.6948 10.7556 9.23945C9.89545 9.30668 9.03302 9.37334 8.17348 9.43999C7.58229 10.605 6.994 11.7706 6.40397 12.935C5.45402 14.8112 2.64241 13.1605 3.59004 11.2895C4.35047 9.7866 5.25174 6.40631 7.21483 6.25387C9.30369 6.09158 11.392 5.92929 13.4802 5.76758C13.5312 5.76352 13.5747 5.77048 13.6234 5.77048C15.2022 5.34794 17.0529 6.46195 17.3879 8.07153C18.4555 10.3836 19.9885 12.1891 22.5607 12.9426C24.5743 13.5315 23.7165 16.677 21.6943 16.0858C19.1516 15.3416 17.3253 13.8844 15.9406 11.9665C15.1019 13.4619 14.283 14.9666 13.4982 16.4921C15.2237 17.682 16.7312 19.1212 18.0521 20.7818C18.4207 21.2449 18.4839 21.7213 18.3598 22.1404C18.3645 22.2969 18.3546 22.4592 18.31 22.6354C17.8017 24.6478 17.294 26.6567 16.7851 28.6668C16.2455 30.8091 12.8543 30.2005 13.3985 28.0443C13.8825 26.1287 14.367 24.2131 14.851 22.2963C13.6373 20.8653 12.2063 19.6203 10.5713 18.6906C10.1864 18.4715 9.94414 18.1695 9.80967 17.8368C7.57302 21.2646 5.33578 26.007 3.10029 28.8813C1.73592 30.6352 -0.993387 28.5352 0.372717 26.7779Z" fill="#48C225"/>
</svg>
