<svg width="21" height="21" viewBox="0 0 21 21" fill="none" xmlns="http://www.w3.org/2000/svg">
<path d="M9.625 1.75H7.875C3.5 1.75 1.75 3.5 1.75 7.875V13.125C1.75 17.5 3.5 19.25 7.875 19.25H13.125C17.5 19.25 19.25 17.5 19.25 13.125V11.375" stroke="#BABABA" stroke-linecap="round" stroke-linejoin="round"/>
<path d="M14.0351 2.6426L7.14014 9.53759C6.87764 9.80009 6.61514 10.3163 6.56264 10.6926L6.18639 13.3263C6.04639 14.2801 6.72014 14.9451 7.67389 14.8138L10.3076 14.4376C10.6751 14.3851 11.1914 14.1226 11.4626 13.8601L18.3576 6.9651C19.5476 5.7751 20.1076 4.3926 18.3576 2.6426C16.6076 0.892599 15.2251 1.4526 14.0351 2.6426Z" stroke="#BABABA" stroke-miterlimit="10" stroke-linecap="round" stroke-linejoin="round"/>
<path d="M13.0464 3.6311C13.6326 5.72235 15.2689 7.3586 17.3689 7.9536" stroke="#BABABA" stroke-miterlimit="10" stroke-linecap="round" stroke-linejoin="round"/>
</svg>
