<svg width="25" height="25" viewBox="0 0 25 25" fill="none" xmlns="http://www.w3.org/2000/svg">
<path d="M20.8333 13.6573C20.8333 21.0647 14.5371 22.9165 11.3889 22.9165C8.63426 22.9165 3.125 21.0647 3.125 13.6573C3.125 10.7598 4.64736 8.81382 6.10412 7.70252C6.91501 7.08393 7.94833 7.69985 8.05226 8.71444L8.14167 9.58719C8.25054 10.65 9.21804 11.5213 10.1139 10.9391C11.8685 9.79889 12.5 7.05738 12.5 5.55544V5.21833C12.5 3.72904 14.004 2.77056 15.2107 3.64328C17.8805 5.57412 20.8333 8.94183 20.8333 13.6573Z" stroke="#FF6A00"/>
<path d="M8.33325 19.2129C8.33325 22.1758 10.9259 22.9165 12.2221 22.9165C13.3564 22.9165 15.6249 22.1758 15.6249 19.2129C15.6249 18.066 15.0111 17.2918 14.417 16.845C14.0024 16.5332 13.4195 16.8132 13.2769 17.312C13.0911 17.9621 12.4195 18.3707 12.0774 17.7873C11.7646 17.2538 11.7646 16.4537 11.7646 15.9722C11.7646 15.309 11.0977 14.8798 10.5613 15.2696C9.48585 16.051 8.33325 17.3764 8.33325 19.2129Z" stroke="#FF6A00"/>
</svg>
