<svg width="34" height="34" viewBox="0 0 34 34" fill="none" xmlns="http://www.w3.org/2000/svg">
<circle cx="17" cy="17" r="16.5" stroke="white"/>
<path d="M22.2102 14.4826C24.7175 11.9753 22.2439 9.58762 19.7792 12.0516C19.0264 12.8044 18.6716 13.7422 18.8311 14.4579L11.9795 21.3102C11.8455 21.4442 11.8455 21.6622 11.9795 21.7962L12.4656 22.2823C12.5996 22.4164 12.8176 22.4164 12.9516 22.2823L19.8335 15.4004C20.532 15.5173 21.4794 15.2127 22.2102 14.4826Z" fill="white"/>
<path d="M21.2828 21.3102C21.4168 21.4443 21.4168 21.6622 21.2828 21.7963L20.7967 22.2824C20.6626 22.4164 20.4447 22.4164 20.3106 22.2824L17.1172 19.0889L18.0893 18.1168L21.2828 21.3102ZM14.1548 16.1272L15.1723 17.1447L16.1444 16.1725L15.1145 15.1427C15.3964 14.4627 15.0767 13.7443 14.4765 13.0458L12.5323 11.1015C12.2188 10.7874 11.732 11.2741 12.0462 11.5876L13.9905 13.5319L13.5044 14.0179L11.5601 12.0737C11.246 11.7602 10.7599 12.2462 11.0741 12.5597L13.0183 14.504L12.5323 14.99L10.5873 13.0458C10.2738 12.7323 9.78776 13.2184 10.1013 13.5319L12.0455 15.4761C12.7365 16.1162 13.4088 16.4984 14.1548 16.1272Z" fill="#A1A1A1"/>
</svg>
