<svg width="25" height="25" viewBox="0 0 25 25" fill="none" xmlns="http://www.w3.org/2000/svg">
<path d="M13.409 4.45239C11.265 4.45239 9.52075 6.19664 9.52075 8.34067C9.52075 10.4846 11.265 12.2289 13.409 12.2289C15.5531 12.2289 17.2973 10.4846 17.2973 8.34067C17.2973 6.1967 15.5529 4.45239 13.409 4.45239ZM13.409 10.9381C11.9769 10.9381 10.8116 9.7729 10.8116 8.34073C10.8116 6.90856 11.9769 5.74334 13.409 5.74334C14.8412 5.74334 16.0064 6.90856 16.0064 8.34073C16.0064 9.7729 14.8411 10.9381 13.409 10.9381Z" fill="#54B139"/>
<path d="M16.1433 14.9573C17.0238 14.0145 17.9382 13.0085 18.437 12.3795C19.3405 11.2403 19.818 9.86724 19.818 8.4088C19.8181 4.87481 16.943 1.99976 13.409 1.99976C9.87506 1.99976 7 4.87481 7 8.4088C7 9.86712 7.47795 11.2406 8.38221 12.3807C9.51774 13.8124 12.8068 17.1984 12.9463 17.3419L13.409 17.8178L13.8718 17.3419C13.92 17.2923 14.3442 16.8557 14.9254 16.2465H16.0787C16.742 16.2465 17.2816 16.7861 17.2816 17.4493C17.2816 18.1126 16.742 18.6522 16.0787 18.6522H10.7392C9.36406 18.6522 8.24538 19.7709 8.24538 21.146C8.24538 22.5211 9.36406 23.6398 10.7392 23.6398H13.4089V22.3489H10.7392C10.0759 22.3489 9.53627 21.8093 9.53627 21.146C9.53627 20.4828 10.0759 19.9431 10.7392 19.9431H16.0787C17.4538 19.9431 18.5725 18.8244 18.5725 17.4493C18.5726 16.096 17.4886 14.9917 16.1433 14.9573ZM13.409 15.9627C12.4451 14.9606 10.2424 12.6487 9.39362 11.5785C8.67221 10.6689 8.29088 9.57286 8.29088 8.4088C8.29088 5.58661 10.5868 3.29064 13.409 3.29064C16.2312 3.29064 18.5272 5.58661 18.5272 8.4088C18.5272 9.57299 18.1463 10.6687 17.4256 11.5774C16.5766 12.6479 14.373 14.9605 13.409 15.9627Z" fill="#54B139"/>
</svg>
