<svg width="23" height="19" viewBox="0 0 23 19" fill="none" xmlns="http://www.w3.org/2000/svg">
<path d="M20.7574 6.07876C24.8582 1.97797 20.8125 -1.92717 16.7814 2.10278C15.5502 3.33403 14.97 4.86775 15.2308 6.03828L4.0248 17.2455C3.80554 17.4647 3.80554 17.8212 4.0248 18.0404L4.81977 18.8354C5.03903 19.0547 5.39548 19.0547 5.61474 18.8354L16.8703 7.57987C18.0127 7.77103 19.5621 7.2729 20.7574 6.07876Z" fill="#4CEA1E"/>
<path d="M19.2407 17.2455C19.4599 17.4648 19.4599 17.8212 19.2407 18.0405L18.4457 18.8355C18.2264 19.0547 17.87 19.0547 17.6507 18.8355L12.4278 13.6125L14.0177 12.0226L19.2407 17.2455ZM7.5826 8.76846L9.24675 10.4326L10.8367 8.84267L9.1523 7.15828C9.61332 6.04622 9.09046 4.87119 8.10883 3.72877L4.92895 0.548889C4.41621 0.0350258 3.62012 0.831121 4.13398 1.34386L7.31386 4.52374L6.51889 5.31871L3.33901 2.13883C2.82514 1.62609 2.03017 2.42106 2.54404 2.9338L5.72392 6.11368L4.92895 6.90866L1.74794 3.72877C1.2352 3.21603 0.440233 4.011 0.952972 4.52374L4.13285 7.70363C5.26291 8.75047 6.3626 9.37565 7.5826 8.76846Z" fill="white"/>
</svg>
